<?xml version="1.0" standalone="no"?>
<!DOCTYPE svg PUBLIC "-//W3C//DTD SVG 20010904//EN"
 "http://www.w3.org/TR/2001/REC-SVG-20010904/DTD/svg10.dtd">
<svg version="1.0" xmlns="http://www.w3.org/2000/svg"
 width="128.000000pt" height="128.000000pt" viewBox="0 0 128.000000 128.000000"
 preserveAspectRatio="xMidYMid meet">

<g transform="translate(0.000000,128.000000) scale(0.100000,-0.100000)"
fill="#000000" stroke="none">
<path d="M250 1260 c0 -13 5 -20 13 -17 6 2 12 10 12 17 0 7 -6 15 -12 18 -8
2 -13 -5 -13 -18z"/>
<path d="M894 1246 c-27 -27 -34 -42 -34 -72 0 -31 -7 -43 -40 -71 -22 -19
-40 -41 -40 -50 0 -8 -6 -13 -12 -10 -7 2 -12 13 -10 25 5 36 -25 81 -61 90
-61 16 -117 -26 -117 -88 0 -12 -13 -33 -30 -47 -21 -18 -30 -34 -30 -56 0
-22 -9 -39 -35 -63 -46 -41 -47 -83 -6 -125 26 -26 36 -29 90 -29 l61 0 0 -32
c0 -30 0 -31 -20 -13 -31 28 -36 10 -6 -25 33 -39 33 -67 1 -82 -18 -8 -31 -8
-54 2 -24 9 -35 9 -58 -2 -24 -12 -32 -12 -57 0 -24 13 -32 13 -59 0 -27 -13
-35 -13 -59 0 -24 11 -35 12 -59 2 -23 -10 -35 -10 -58 0 -24 10 -35 9 -58 -2
-24 -11 -32 -11 -56 0 -19 9 -36 11 -55 4 l-27 -9 -3 -283 c-2 -200 1 -287 9
-296 17 -21 1241 -21 1258 0 8 9 11 96 9 296 l-3 283 -27 9 c-19 7 -36 5 -55
-4 -24 -11 -32 -11 -55 0 -23 11 -34 11 -62 1 -53 -19 -66 -3 -66 81 l0 68 85
3 c79 4 87 6 116 35 51 52 40 138 -23 170 -23 12 -28 21 -28 50 0 47 -24 90
-60 109 -24 13 -29 20 -24 39 8 35 -20 92 -55 110 -50 26 -88 21 -127 -18z
m131 -21 c19 -18 25 -35 25 -69 0 -40 3 -47 30 -61 37 -19 50 -43 50 -94 0
-36 4 -43 39 -65 47 -30 60 -70 37 -114 -8 -16 -23 -32 -31 -36 -9 -3 -82 -6
-161 -6 -140 0 -144 1 -134 19 20 38 12 72 -25 107 -24 22 -35 42 -35 61 0 16
-5 34 -11 40 -18 18 -1 61 31 78 34 18 53 47 44 69 -8 21 14 74 35 86 31 18
81 11 106 -15z m-315 -105 c11 -11 20 -33 20 -51 0 -22 10 -40 35 -64 28 -26
35 -38 30 -57 -5 -20 1 -30 29 -52 40 -30 47 -67 19 -98 -14 -16 -34 -18 -171
-18 -131 0 -158 3 -174 17 -28 26 -23 69 12 95 21 15 30 30 30 49 0 41 9 58
41 75 24 12 29 21 29 54 0 62 58 92 100 50z m-30 -446 c0 -47 -4 -73 -10 -69
-5 3 -10 37 -10 76 0 39 4 69 10 69 6 0 10 -32 10 -76z m250 -4 c0 -44 -2 -80
-5 -80 -2 0 -15 5 -29 11 -19 9 -31 8 -53 -3 -23 -11 -32 -12 -53 -1 -14 7
-37 10 -52 7 l-28 -6 0 76 0 76 110 0 110 0 0 -80z m60 10 c0 -56 -3 -70 -15
-70 -12 0 -15 14 -15 70 0 56 3 70 15 70 12 0 15 -14 15 -70z m-905 -110 c8
-14 48 -13 63 2 9 9 21 8 50 -1 31 -11 44 -11 62 -1 18 10 31 10 62 -1 29 -9
41 -10 50 -1 15 15 55 16 63 2 9 -14 48 -13 63 2 9 9 20 9 48 -1 28 -10 42
-10 65 -1 23 10 35 10 58 0 23 -9 37 -9 65 1 28 10 39 10 48 1 15 -15 54 -16
63 -2 8 14 48 13 63 -2 9 -9 21 -8 50 1 31 11 44 11 62 1 18 -10 31 -10 62 1
29 9 41 10 50 1 15 -15 55 -16 63 -2 3 6 17 10 31 10 l24 0 0 -159 0 -159 -32
-6 c-18 -4 -43 -7 -55 -6 -54 1 -80 1 -108 0 -78 -4 -129 25 -107 61 15 24 15
62 0 77 -9 9 -9 17 1 35 7 13 11 35 9 48 l-3 24 -315 0 -315 0 -3 -24 c-2 -13
2 -35 9 -48 10 -18 10 -26 1 -35 -16 -16 -15 -53 0 -78 17 -26 2 -41 -59 -56
-32 -8 -55 -9 -75 -2 -20 7 -37 7 -57 -2 -21 -8 -35 -9 -49 -1 -12 6 -30 11
-41 11 -20 0 -21 5 -21 160 l0 160 24 0 c14 0 28 -4 31 -10z m855 -110 c0 -6
-107 -10 -300 -10 -193 0 -300 4 -300 10 0 6 107 10 300 10 193 0 300 -4 300
-10z m-540 -55 c0 -8 -7 -15 -15 -15 -8 0 -15 7 -15 15 0 8 7 15 15 15 8 0 15
-7 15 -15z m450 0 c0 -13 -30 -15 -210 -15 -180 0 -210 2 -210 15 0 13 30 15
210 15 180 0 210 -2 210 -15z m60 0 c0 -8 -7 -15 -15 -15 -8 0 -15 7 -15 15 0
8 7 15 15 15 8 0 15 -7 15 -15z m30 -55 c0 -6 -107 -10 -300 -10 -193 0 -300
4 -300 10 0 6 107 10 300 10 193 0 300 -4 300 -10z m-540 -55 c0 -8 -7 -15
-15 -15 -8 0 -15 7 -15 15 0 8 7 15 15 15 8 0 15 -7 15 -15z m450 0 c0 -13
-30 -15 -210 -15 -180 0 -210 2 -210 15 0 13 30 15 210 15 180 0 210 -2 210
-15z m60 0 c0 -8 -7 -15 -15 -15 -8 0 -15 7 -15 15 0 8 7 15 15 15 8 0 15 -7
15 -15z m28 -57 c-4 -10 -72 -13 -298 -13 -226 0 -294 3 -297 13 -4 9 60 12
297 12 237 0 301 -3 298 -12z m-850 -20 c9 -9 21 -8 52 2 33 11 45 11 64 1 19
-11 30 -11 59 0 32 11 39 11 57 -6 17 -15 20 -30 20 -102 l0 -83 -155 0 -155
0 0 100 c0 98 1 100 23 100 13 0 28 -5 35 -12z m937 0 c20 -9 31 -8 50 2 21
11 32 11 65 0 31 -10 43 -11 52 -2 7 7 22 12 35 12 22 0 23 -2 23 -100 l0
-100 -155 0 -155 0 0 82 c0 108 21 135 85 106z m-625 -103 c0 -69 -3 -85 -15
-85 -12 0 -15 16 -15 85 0 69 3 85 15 85 12 0 15 -16 15 -85z m450 70 c0 -13
-30 -15 -210 -15 -180 0 -210 2 -210 15 0 13 30 15 210 15 180 0 210 -2 210
-15z m60 -70 c0 -69 -3 -85 -15 -85 -12 0 -15 16 -15 85 0 69 3 85 15 85 12 0
15 -16 15 -85z m-60 -30 l0 -55 -210 0 -210 0 0 55 0 55 210 0 210 0 0 -55z"/>
<path d="M136 1221 c-7 -10 22 -37 30 -28 9 8 -3 37 -15 37 -5 0 -12 -4 -15
-9z"/>
<path d="M361 1217 c-6 -8 -8 -17 -4 -20 7 -8 33 11 33 24 0 13 -16 11 -29 -4z"/>
<path d="M203 1191 c-72 -44 -58 -153 24 -187 68 -29 132 12 140 90 5 42 3 48
-30 81 -41 41 -84 46 -134 16z m117 -31 c33 -33 30 -85 -6 -117 -40 -36 -101
-24 -123 24 -16 35 -14 57 10 87 26 33 88 37 119 6z"/>
<path d="M90 1100 c0 -5 9 -10 20 -10 11 0 20 5 20 10 0 6 -9 10 -20 10 -11 0
-20 -4 -20 -10z"/>
<path d="M400 1100 c0 -5 9 -10 20 -10 11 0 20 5 20 10 0 6 -9 10 -20 10 -11
0 -20 -4 -20 -10z"/>
<path d="M141 997 c-6 -8 -8 -17 -4 -20 7 -8 33 11 33 24 0 13 -16 11 -29 -4z"/>
<path d="M356 1001 c-7 -10 22 -37 30 -28 9 8 -3 37 -15 37 -5 0 -12 -4 -15
-9z"/>
<path d="M250 950 c0 -13 5 -20 13 -17 6 2 12 10 12 17 0 7 -6 15 -12 18 -8 2
-13 -5 -13 -18z"/>
</g>
</svg>
